<?xml version="1.0" encoding="UTF-8"?>
<svg id="Layer_1" data-name="Layer 1" xmlns="http://www.w3.org/2000/svg" xmlns:xlink="http://www.w3.org/1999/xlink" viewBox="0 0 512 512">
  <defs>
    <style>
      .cls-1 {
        fill: url(#linear-gradient);
      }

      .cls-1, .cls-2, .cls-3 {
        stroke-width: 0px;
      }

      .cls-2 {
        fill: #fefefe;
      }

      .cls-3 {
        fill: url(#linear-gradient-2);
      }
    </style>
    <linearGradient id="linear-gradient" x1="22.98" y1="22.98" x2="489.02" y2="489.02" gradientUnits="userSpaceOnUse">
      <stop offset="0" stop-color="#253a65"/>
      <stop offset=".09" stop-color="#1d3158"/>
      <stop offset=".24" stop-color="#16284c"/>
      <stop offset=".45" stop-color="#122345"/>
      <stop offset="1" stop-color="#124"/>
    </linearGradient>
    <linearGradient id="linear-gradient-2" x1="78.79" y1="289.38" x2="433.21" y2="289.38" gradientUnits="userSpaceOnUse">
      <stop offset="0" stop-color="#b2dc46"/>
      <stop offset="1" stop-color="#7bbb36"/>
    </linearGradient>
  </defs>
  <rect class="cls-1" x="2.38" y="11.87" width="507.24" height="488.26" rx="54.14" ry="54.14"/>
  <g>
    <path class="cls-3" d="M433.21,312.1v37.36c0,33.19-26.9,60.09-60.09,60.09H112.68c-3.92,0-7.85-.51-11.55-1.83-18.81-6.69-23.02-26.94-22.25-38.16v-.15c2.04-29.92,15.49-40.9,39.3-59.13,45.98-35.22,97.13-60.16,155.18-85.57,40.29-17.63,83.5-34.92,123.06-51.59,3.12-1.32,6.22-2.61,9.29-3.9-1.87,1.34-3.74,2.68-5.61,4.05-65.74,47.78-139.01,106.37-202.39,163.06,29.13,2.58,75.28,2.97,141.69-6.44,34.48-4.88,66.08-11.17,93.8-17.78Z"/>
    <path class="cls-2" d="M433.21,128.86v.08c0,13.08-8.03,24.82-20.22,29.56h0c-16.8,6.31-16.97,6.43-35.16,13.86-35.45,14.46-72.76,30.22-108.75,44.3-58.63,22.93-113.97,54.58-158.25,87.71,48.96-49.18,122.03-103.72,213.27-133.93-88.45-2.45-164.51.44-220.58,29.21l6.52-62.79c2.03-19.55,18.5-34.4,38.16-34.4h258.62c14.58,0,26.4,11.82,26.4,26.4Z"/>
  </g>
</svg>