<?xml version="1.0" encoding="UTF-8"?>
<svg id="Layer_1" data-name="Layer 1" xmlns="http://www.w3.org/2000/svg" viewBox="0 -15 540 215">
  <defs>
    <style>
      .cls-1 { fill: #ffffff; stroke-width: 0px; }
      .cls-2 { fill: #7cbb34; stroke-width: 0px; }
      .miles-text { fill: #7cbb34; font-family: sans-serif; font-weight: 700; font-size: 46px; letter-spacing: 1px; }
    </style>
  </defs>
  <g>
    <path class="cls-1" d="M130.94,47.54l-.46,3.19c-.6,4.15-2.85,7.89-6.24,10.36l-.2.15-4.27,3.1-67.29,48.96h64.07l-2.91,20.26H4.24c-1,0-1.81-.81-1.82-1.81l-.03-2.57c-.05-4.6,2.13-8.93,5.85-11.64l5.84-4.25,11.53-8.39,56.25-40.93-50.29-.48,3.03-21.07,75.9.71,16.11.16h.68c2.25.03,3.96,2.02,3.64,4.25Z"/>
    <g>
      <path class="cls-1" d="M306.63,49.62l-10.25,44.66c-.9,4.06-2.09,7.35-3.57,9.85-1.48,2.5-3.33,4.3-5.53,5.39-2.2,1.1-4.83,1.64-7.89,1.64-2.52,0-4.68-.33-6.47-1-1.8-.66-3.22-1.7-4.25-3.11-1.03-1.41-1.64-3.17-1.82-5.28-.18-2.11.04-4.61.67-7.5l10.25-44.66h-4.73c-3.95,0-7.88.44-11.73,1.32l-16.54,3.78-9.21,40.03c-1.8,7.74-1.33,14.52,1.42,20.34,2.74,5.82,7.39,10.36,13.96,13.6,6.56,3.24,14.74,4.86,24.54,4.86,14.47,0,26.02-3.2,34.65-9.61,8.63-6.41,14.34-15.75,17.12-28.02l10.65-46.3h-31.28Z"/>
      <path class="cls-1" d="M516.49,54.23c-.74-2.72-3.21-4.61-6.03-4.61h-16.27c-6.43,0-12.48,3.07-16.28,8.25l-53.81,73.42-15.47-23.49c1.02-.34,2.01-.7,2.98-1.09,7.15-2.89,12.68-6.92,16.59-12.07,3.91-5.16,5.87-11.17,5.87-18.05,0-8.52-3.42-15.14-10.25-19.87-6.83-4.73-16.5-7.09-28.99-7.09h-42.34l-18.88,82.06h31.82l4.75-20.63h7.74l13.4,20.63h66.07l9.44-14.3h35.96l3.15,14.3h31.69l-21.13-77.45ZM398.19,87.31c-2.43,1.92-5.84,2.87-10.25,2.87h-13.03l4.41-19.23h10.64c3.68,0,6.58.65,8.7,1.93,2.11,1.29,3.17,3.42,3.17,6.39,0,3.44-1.21,6.12-3.64,8.03ZM479.97,97.45l13.82-20.95,4.61,20.95h-18.43Z"/>
      <path class="cls-1" d="M199.23,49.62l-10.25,44.66c-.9,4.06-2.09,7.35-3.57,9.85-1.48,2.5-3.33,4.3-5.53,5.39-2.2,1.1-4.83,1.64-7.89,1.64-2.52,0-4.68-.33-6.47-1-1.8-.66-3.22-1.7-4.25-3.11-1.03-1.41-1.64-3.17-1.82-5.28-.18-2.11.04-4.61.67-7.5l10.25-44.66h-4.73c-3.95,0-7.88.44-11.73,1.32l-16.54,3.78-9.21,40.03c-1.8,7.74-1.33,14.52,1.42,20.34,2.74,5.82,7.39,10.36,13.96,13.6,6.56,3.24,14.74,4.86,24.54,4.86,14.47,0,26.02-3.2,34.65-9.61,8.63-6.41,14.34-15.75,17.12-28.02l10.65-46.3h-31.28Z"/>
    </g>
  </g>
  <path class="cls-2" d="M509.42,38.07c-176.56-31.84-366.83,1.35-428.76,26.1C147.13,32.12,351.34-9.76,509.42,38.07Z"/>
  <text class="miles-text" x="530" y="178" text-anchor="end">Miles</text>
</svg>
